# xmcd
#
# Track frame offsets:
#	182
#	12740
#	21055
#	32662
#	44735
#	53295
#	70895
#	81705
#	95297
#	111562
#	126232
#	150080
#	161287
#	174700
#	200167
#	211710
#	232697
#	252890
#	270672
#
# Disc length: 4008 seconds
#
# Revision: 0
# Processed by: cddbd v1.5.2PL0 Copyright (c) Steve Scherf et al.
# Submitted via: dBpowerAMP V4.0
#
DISCID=fc0fa613
DTITLE=Country Tonight Live - America's Show
DYEAR=1994
DGENRE=Country
TTITLE0=Country Tonight
TTITLE1=The Race Is On
TTITLE2=Ol' Slewfoot
TTITLE3=Sweet Dreams
TTITLE4=Columbus Stockade Blues
TTITLE5=Cowboy Medley. Should've Been A Cowboy, Whatcha Gonna Do With A Cowboy?
TTITLE6=She's In Love With The Boy
TTITLE7=Take It Back
TTITLE8=I Will Always Love You
TTITLE9=The Auctioneer
TTITLE10=Crash Course In The Blues
TTITLE11=Achy Breaky Heart
TTITLE12=Boot Scootin' Boogie
TTITLE13=Dolly's Medley. Down At The Twist and Shout, Sanantonio Rose, Cotton Eyeyed Joe, That's What I Like About You
TTITLE14=Tennessee Waltz
TTITLE15=The Judds Medley. Let Me Tell You About Love, Give A Little Love, Grandpa (Tell Me About The Good Old Days), Girls' Night Out
TTITLE16=Mountain Music
TTITLE17=Orange Blossom Special
TTITLE18=Country Tonight Finale. This Land Is Your Land, Some Gave All, America... The Beautiful, God Bless The U.S.A.
EXTD=
EXTT0=
EXTT1=
EXTT2=
EXTT3=
EXTT4=
EXTT5=
EXTT6=
EXTT7=
EXTT8=
EXTT9=
EXTT10=
EXTT11=
EXTT12=
EXTT13=
EXTT14=
EXTT15=
EXTT16=
EXTT17=
EXTT18=
PLAYORDER=
